Coordinates
version=1
nRows=9
nColumns=24
inDegrees=yes

Units are S.I. units (second, meters, Newtons, ...)
Angles are in degrees.

endheader
time	pelvis_tilt	pelvis_list	pelvis_rotation	pelvis_tx	pelvis_ty	pelvis_tz	hip_flexion_r	hip_adduction_r	hip_rotation_r	knee_angle_r	ankle_angle_r	subtalar_angle_r	mtp_angle_r	hip_flexion_l	hip_adduction_l	hip_rotation_l	knee_angle_l	ankle_angle_l	subtalar_angle_l	mtp_angle_l	lumbar_extension	lumbar_bending	lumbar_rotation
      1.68000000	     -8.39164575	      0.10767061	      2.16446283	     -0.21017949	      1.23736884	     -0.86357332	     32.75686216	      4.10968311	     -1.52649923	    -37.33930305	      5.98589153	     -9.07686172	      7.94025931	     12.12001393	      9.30305466	     10.50589414	    -19.93662197	      7.87953343	     -1.70075183	      8.33155486	     -5.20135984	     -3.33512124	     -1.97500783
      1.68500000	     -8.44920578	      0.07660916	      2.16265311	     -0.20503753	      1.23699976	     -0.86329239	     32.75201292	      4.21877208	     -1.17764064	    -35.22515892	      6.10717161	     -9.22536937	      7.72908597	     11.82609294	      9.23774532	     10.49017171	    -20.04887090	      8.26381024	     -1.49688877	      8.39931177	     -5.19461117	     -3.30963334	     -1.99909671
      1.69000000	     -8.51252876	      0.05025821	      2.18270403	     -0.19993235	      1.23657476	     -0.86302816	     32.70128705	      4.29666503	     -0.83707090	    -33.02272581	      6.17555940	     -9.32940640	      7.55153476	     11.56929114	      9.19207471	     10.50770745	    -20.21697498	      8.63326076	     -1.35564763	      8.46628020	     -5.19005970	     -3.29372902	     -2.00514231
      1.69500000	     -8.57817149	      0.03251129	      2.19331667	     -0.19466338	      1.23613197	     -0.86270324	     32.57301134	      4.36625159	     -0.49699434	    -30.71037666	      6.16178357	     -9.58918818	      7.35551562	     11.26081132	      9.12863888	     10.45337450	    -20.29642340	      9.02787972	     -1.05980663	      8.54386499	     -5.14942874	     -3.28840469	     -2.02229054
      1.70000000	     -8.66448773	      0.03823490	      2.20647245	     -0.18945989	      1.23557425	     -0.86233951	     32.43434479	      4.40688360	     -0.10882556	    -28.35379015	      6.07250183	     -9.83521827	      7.20799130	     11.02993940	      9.09916285	     10.38031593	    -20.47723472	      9.46117150	     -0.77755632	      8.59236440	     -5.10161211	     -3.31721397	     -1.99213077
      1.70500000	     -8.75789817	      0.05666796	      2.25963513	     -0.18418876	      1.23497340	     -0.86204775	     32.25887234	      4.37965807	      0.17076857	    -25.96948591	      5.94378364	     -9.96295379	      7.11304044	     10.78308351	      9.09815270	     10.38146550	    -20.62263436	      9.82749997	     -0.56072616	      8.63761802	     -5.03306924	     -3.35335296	     -2.00065633
      1.71000000	     -8.86284367	      0.08833982	      2.35864249	     -0.17891984	      1.23430869	     -0.86184166	     32.08171254	      4.28264161	      0.31396245	    -23.62105023	      5.80764511	     -9.93300911	      7.03769537	     10.55973762	      9.13539500	     10.46641004	    -20.79117711	     10.12913812	     -0.42829648	      8.70468017	     -4.95464858	     -3.39700507	     -2.01078018
      1.71500000	     -8.97230147	      0.14046375	      2.43521056	     -0.17357306	      1.23359265	     -0.86157161	     31.88862235	      4.17767791	      0.46389848	    -21.31116038	      5.64646809	     -9.90962401	      6.97908268	     10.32363820	      9.17752547	     10.48309061	    -20.93541400	     10.45862024	     -0.24182833	      8.78261647	     -4.85389427	     -3.46084264	     -1.99989070
      1.72000000	     -9.09949184	      0.20493926	      2.51707957	     -0.16822565	      1.23281652	     -0.86129528	     31.71995474	      4.04890774	      0.55366093	    -19.09248521	      5.48643611	     -9.79416458	      6.93875334	     10.11502099	      9.23522795	     10.50060517	    -21.09542230	     10.78479174	     -0.05488462	      8.85623878	     -4.73510295	     -3.54053629	     -1.98520397
